<?xml version="1.0" encoding="UTF-8"?>
<svg xmlns="http://www.w3.org/2000/svg" viewBox="0 0 1200 1000" role="img" aria-labelledby="title desc">
<title id="title">Bau Job stacked logo</title>
<desc id="desc">Stacked Bau Job logo with mark above wordmark</desc>

<polygon points="290.0,245.8 585.8,90.0 842.6,225.8 842.6,317.4 620.5,212.1 620.5,612.1 535.3,612.1 535.3,230.0 290.0,350.0" fill="#161F29"/>
<polygon points="290.0,379.5 507.9,275.3 507.9,383.7 419.5,426.8 290.0,381.6" fill="#161F29"/>
<polygon points="290.0,533.2 478.4,455.2 478.4,547.9 290.0,610.0" fill="#FDB515"/>
<polygon points="646.9,332.1 910.0,441.6 910.0,544.7 646.9,444.8" fill="#161F29"/>
<g transform="translate(158.865,0)"><path d="M 162.52 811.44 Q 169.44 811.44 173.92 809.76 Q 178.4 808.07 181.08 805.28 Q 183.78 802.48 184.83 798.87 Q 185.89 795.26 185.89 791.41 Q 185.89 787.2 184.62 783.84 Q 183.39 780.47 180.59 778.12 Q 177.83 775.75 173.35 774.51 Q 168.87 773.25 162.31 773.25 L 137.77 773.25 L 137.77 811.44 L 162.52 811.44 Z M 137.77 715.88 L 137.77 753.61 L 156.75 753.61 Q 162.79 753.61 167.51 752.62 Q 172.23 751.6 175.39 749.37 Q 178.58 747.15 180.26 743.54 Q 181.95 739.93 181.95 734.85 Q 181.95 729.65 180.53 726.01 Q 179.15 722.34 176.26 720.15 Q 173.38 717.92 168.96 716.9 Q 164.54 715.88 158.46 715.88 L 137.77 715.88 Z M 158.46 693.95 Q 172.54 693.95 182.49 696.6 Q 192.44 699.25 198.73 704.12 Q 205.04 708.96 207.93 715.91 Q 210.82 722.82 210.82 731.39 Q 210.82 736.2 209.4 740.62 Q 208.02 745.04 205.07 748.95 Q 202.16 752.83 197.52 756.02 Q 192.92 759.18 186.58 761.4 Q 200.8 764.77 207.63 772.38 Q 214.48 779.99 214.48 792.1 Q 214.48 800.95 211.06 808.55 Q 207.66 816.16 201.1 821.75 Q 194.55 827.32 184.98 830.44 Q 175.42 833.57 163 833.57 L 108.91 833.57 L 108.91 693.95 L 158.46 693.95 Z M 284.83 792.1 Q 275.09 792.59 268.65 793.79 Q 262.22 794.99 258.4 796.92 Q 254.61 798.84 253.02 801.31 Q 251.42 803.74 251.42 806.63 Q 251.42 812.4 254.64 814.81 Q 257.89 817.21 263.66 817.21 Q 270.28 817.21 275.15 814.87 Q 280.02 812.49 284.83 807.5 L 284.83 792.1 Z M 230.73 748.11 Q 239.48 740.23 250.07 736.35 Q 260.65 732.44 272.98 732.44 Q 281.82 732.44 288.8 735.33 Q 295.78 738.22 300.65 743.36 Q 305.52 748.5 308.11 755.63 Q 310.69 762.76 310.69 771.21 L 310.69 833.57 L 298.57 833.57 Q 294.81 833.57 292.83 832.52 Q 290.88 831.47 289.64 828.1 L 287.51 821.72 Q 283.75 825 280.23 827.53 Q 276.74 830.02 272.98 831.71 Q 269.22 833.39 264.92 834.23 Q 260.65 835.11 255.36 835.11 Q 248.84 835.11 243.42 833.39 Q 238.04 831.65 234.13 828.25 Q 230.25 824.82 228.12 819.74 Q 226.01 814.63 226.01 807.98 Q 226.01 802.48 228.81 797.01 Q 231.61 791.53 238.37 787.05 Q 245.17 782.57 256.47 779.66 Q 267.78 776.71 284.83 776.32 L 284.83 771.21 Q 284.83 761.88 280.86 757.52 Q 276.92 753.13 269.53 753.13 Q 264.02 753.13 260.35 754.43 Q 256.72 755.72 253.98 757.22 Q 251.24 758.7 248.84 760.02 Q 246.43 761.31 243.24 761.31 Q 240.45 761.31 238.58 759.93 Q 236.72 758.52 235.46 756.59 L 230.73 748.11 Z M 418.58 734.37 L 418.58 833.57 L 402.22 833.57 Q 397.11 833.57 395.66 828.94 L 393.95 822.02 Q 390.94 824.91 387.76 827.32 Q 384.6 829.72 380.99 831.47 Q 377.38 833.18 373.2 834.14 Q 369.02 835.11 364.12 835.11 Q 356.03 835.11 349.72 832.34 Q 343.43 829.54 339.19 824.55 Q 334.95 819.53 332.73 812.61 Q 330.53 805.67 330.53 797.4 L 330.53 734.37 L 357.08 734.37 L 357.08 797.4 Q 357.08 805.67 360.87 810.24 Q 364.69 814.81 372.18 814.81 Q 377.77 814.81 382.67 812.37 Q 387.58 809.91 392.03 805.67 L 392.03 734.37 L 418.58 734.37 Z M 545.1 783.53 Q 545.1 795.26 542.22 804.76 Q 539.33 814.24 533.5 821.03 Q 527.69 827.8 518.94 831.47 Q 510.19 835.11 498.52 835.11 Q 493.23 835.11 488.09 834.47 Q 482.95 833.87 477.26 832.52 Q 477.66 828.28 478.05 824.04 Q 478.44 819.8 478.8 815.59 Q 479.1 813.27 480.63 811.89 Q 482.17 810.48 485.05 810.48 Q 486.71 810.48 489.23 811.05 Q 491.79 811.62 495.55 811.62 Q 500.75 811.62 504.6 810.18 Q 508.45 808.73 511.03 805.49 Q 513.65 802.21 514.94 796.98 Q 516.24 791.71 516.24 784.2 L 516.24 693.95 L 545.1 693.95 L 545.1 783.53 Z M 614.11 732.84 Q 625.27 732.84 634.41 736.38 Q 643.55 739.93 650.07 746.55 Q 656.63 753.13 660.18 762.58 Q 663.76 771.99 663.76 783.84 Q 663.76 795.65 660.18 805.16 Q 656.63 814.63 650.07 821.27 Q 643.55 827.89 634.41 831.47 Q 625.27 835.02 614.11 835.02 Q 602.83 835.02 593.63 831.47 Q 584.46 827.89 577.9 821.27 Q 571.38 814.63 567.77 805.16 Q 564.16 795.65 564.16 783.84 Q 564.16 771.99 567.77 762.58 Q 571.38 753.13 577.9 746.55 Q 584.46 739.93 593.63 736.38 Q 602.83 732.84 614.11 732.84 Z M 614.11 815.11 Q 625.45 815.11 630.92 807.26 Q 636.42 799.41 636.42 783.93 Q 636.42 768.53 630.92 760.68 Q 625.45 752.83 614.11 752.83 Q 602.47 752.83 596.97 760.68 Q 591.5 768.53 591.5 783.93 Q 591.5 799.41 596.97 807.26 Q 602.47 815.11 614.11 815.11 Z M 707.06 807.41 Q 710.82 811.74 715.18 813.48 Q 719.57 815.2 724.29 815.2 Q 729.19 815.2 733.19 813.42 Q 737.19 811.62 740.07 807.74 Q 742.96 803.83 744.49 797.58 Q 746.03 791.32 746.03 782.48 Q 746.03 774.57 744.77 769.04 Q 743.53 763.51 741.07 759.96 Q 738.63 756.41 735.05 754.79 Q 731.5 753.13 726.78 753.13 Q 720.53 753.13 715.96 755.87 Q 711.39 758.61 707.06 763.9 L 707.06 807.41 Z M 707.06 745.83 Q 712.92 739.93 720.05 736.38 Q 727.17 732.84 736.01 732.84 Q 744.59 732.84 751.47 736.26 Q 758.36 739.66 763.2 746.01 Q 768.07 752.35 770.72 761.37 Q 773.36 770.36 773.36 781.52 Q 773.36 793.55 770.33 803.41 Q 767.29 813.27 761.7 820.31 Q 756.13 827.32 748.37 831.17 Q 740.65 835.02 731.11 835.02 Q 726.48 835.02 722.81 834.08 Q 719.18 833.18 716.08 831.56 Q 713.01 829.9 710.42 827.65 Q 707.84 825.39 705.52 822.6 L 704.47 828.58 Q 703.78 831.35 702.25 832.46 Q 700.71 833.57 698.1 833.57 L 680.5 833.57 L 680.5 690.11 L 707.06 690.11 L 707.06 745.83 Z" fill="#161F29"/></g>
</svg>